<svg version="1.1" viewBox="0 0 100 100" xmlns="http://www.w3.org/2000/svg">
	<path d="m44.764 36.907h-10.475v-5.2373h10.475zm15.712 5.2373h-26.186v5.2373h26.186zm26.186-2.5139v44.413c0 2.8805-2.3568 5.2373-5.2373 5.2373h-62.848c-2.8805 0-5.2373-2.3568-5.2373-5.2373v-44.413c0-1.7283.83796-3.2994 2.1997-4.2422l8.2749-5.9181v-3.0376c0-2.8805 2.3568-5.2373 5.2373-5.2373h6.2848l14.664-10.475 14.664 10.475h6.2848c2.8805 0 5.2373 2.3568 5.2373 5.2373v3.0376l8.2749 5.9181c1.4141.99508 2.1997 2.5139 2.1997 4.2422zm-57.61 10.37 20.95 13.093 20.95-13.093v-23.568h-41.898zm-10.475 31.423 23.568-15.712-23.568-15.712zm57.61 2.6186-26.186-15.712-26.186 15.712zm5.2373-34.043-23.568 15.712 23.568 15.712z" fill-rule="evenodd"/>
</svg>
