<?xml version="1.0" standalone="no"?>
<!DOCTYPE svg PUBLIC "-//W3C//DTD SVG 20010904//EN"
 "http://www.w3.org/TR/2001/REC-SVG-20010904/DTD/svg10.dtd">
<svg version="1.0" xmlns="http://www.w3.org/2000/svg"
 width="700.000000pt" height="700.000000pt" viewBox="0 0 700.000000 700.000000"
 preserveAspectRatio="xMidYMid meet">
<metadata>
Created by potrace 1.11, written by Peter Selinger 2001-2013
</metadata>
<g transform="translate(0.000000,700.000000) scale(0.100000,-0.100000)"
fill="#000000" stroke="none">
<path d="M3441 6207 c-52 -36 -255 -180 -341 -242 -193 -138 -302 -217 -344
-248 -28 -20 -61 -42 -73 -49 -13 -6 -23 -15 -23 -20 0 -4 -6 -8 -14 -8 -8 0
-16 -4 -18 -8 -1 -4 -25 -23 -53 -42 -27 -19 -60 -43 -72 -53 -20 -18 -43 -19
-285 -21 -251 -2 -265 -3 -318 -26 -109 -47 -185 -129 -216 -238 -10 -33 -16
-100 -17 -184 l-2 -131 -235 -168 c-380 -273 -390 -280 -414 -313 -30 -40 -63
-105 -72 -142 -4 -16 -8 -751 -9 -1634 -1 -1375 0 -1612 13 -1655 37 -130 115
-212 240 -254 l61 -21 2244 0 c2436 0 2305 -3 2395 53 93 60 155 152 171 259
5 29 8 766 7 1638 -1 1507 -2 1588 -20 1641 -33 104 -67 135 -401 374 l-310
222 -2 137 c-2 152 -14 204 -64 279 -38 57 -99 107 -169 137 -53 23 -66 24
-317 26 l-261 2 -64 47 c-34 25 -252 182 -483 347 -231 165 -432 308 -446 319
l-27 19 -61 -43z m1525 -1883 l-1 -825 -80 -50 c-44 -27 -89 -55 -99 -62 -65
-41 -358 -224 -391 -244 -49 -29 -159 -98 -570 -355 -173 -109 -320 -198 -325
-198 -8 0 -146 83 -305 185 -78 50 -318 199 -338 210 -15 9 -150 93 -692 433
-66 41 -123 79 -126 84 -4 7 -5 1638 -1 1646 1 1 660 2 1465 2 l1463 0 0 -826z
m-2743 -1438 c395 -264 716 -483 715 -487 -2 -5 -371 -254 -820 -554 l-818
-545 0 1100 0 1100 103 -68 c56 -37 425 -283 820 -546z m3472 -1574 c-2 -3
-361 233 -797 524 -436 291 -802 534 -813 539 -11 6 -20 16 -20 23 0 7 367
257 815 556 l815 544 3 -1091 c1 -600 0 -1092 -3 -1095z m-1258 343 c485 -291
880 -532 878 -535 -4 -6 -3623 -5 -3630 2 -3 2 16 17 42 32 27 14 154 90 283
169 130 78 445 267 700 420 256 154 537 323 625 376 l160 97 31 -15 c16 -9
427 -254 911 -546z"/>
<path d="M2404 4781 c-7 -8 -4 -361 4 -362 20 -3 708 -4 717 -2 12 4 13 348 2
359 -8 8 -715 12 -723 5z"/>
<path d="M2400 3867 l0 -183 915 0 915 -1 1 26 c1 14 2 96 2 181 l1 155 -917
3 -917 2 0 -183z"/>
</g>
</svg>
